# xmcd CD database file
#
# Track frame offsets:
#	150
#	32872
#	51250
#	76122
#	105962
#	124775
#	148757
#	163990
#	182955
#	210177
#	232462
#	260280
#	290352
#
# Disc length: 3886 seconds
#
# Revision: 1
# Processed by: cddbd v1.5.2PL0 Copyright (c) Steve Scherf et al.
# Submitted via: CDex 1.70beta2
#
DISCID=ba0f2c0d
DTITLE=Larry McMurtry - Wandering Hill Pt 2
DYEAR=2003
DGENRE=Speech
TTITLE0=201
TTITLE1=202
TTITLE2=203
TTITLE3=204
TTITLE4=205
TTITLE5=206
TTITLE6=207
TTITLE7=208
TTITLE8=209
TTITLE9=210
TTITLE10=211
TTITLE11=212
TTITLE12=213
EXTD=The Wandering Hill by Larry McMurtry\nVolume two of The Berrybender Naratives\nread by Alfred Molina 2003 YEAR: 2003
EXTT0=
EXTT1=
EXTT2=
EXTT3=
EXTT4=
EXTT5=
EXTT6=
EXTT7=
EXTT8=
EXTT9=
EXTT10=
EXTT11=
EXTT12=
PLAYORDER=
